<mxfile host="65bd71144e" modified="2021-03-04T15:19:00.102Z" agent="5.0 (Windows NT 10.0; Win64; x64) AppleWebKit/537.36 (KHTML, like Gecko) Code/1.53.2 Chrome/87.0.4280.141 Electron/11.2.1 Safari/537.36" etag="oRjrVR_ncUYaJ1dJHZi3" version="14.2.4" type="embed">
    <diagram id="M3Nc1ik7cVqhor6NpZlr" name="Page-1">
        <mxGraphModel dx="3528" dy="1720" grid="1" gridSize="15" guides="1" tooltips="1" connect="1" arrows="1" fold="1" page="1" pageScale="1" pageWidth="2336" pageHeight="1654" background="#114B5F" math="0" shadow="0">
            <root>
                <mxCell id="0"/>
                <mxCell id="1" parent="0"/>
                <mxCell id="2" value="DC Comics" style="rounded=0;whiteSpace=wrap;html=1;labelBackgroundColor=none;fontColor=#E4FDE1;fillColor=#F45B69;strokeColor=#028090;labelBorderColor=none;" parent="1" vertex="1">
                    <mxGeometry x="1140" y="105" width="120" height="60" as="geometry"/>
                </mxCell>
                <mxCell id="3" value="Product - Comics" style="shape=table;startSize=30;container=1;collapsible=1;childLayout=tableLayout;fixedRows=1;rowLines=0;fontStyle=1;align=center;resizeLast=1;labelBackgroundColor=none;fontColor=#E4FDE1;fillColor=#F45B69;strokeColor=#028090;labelBorderColor=none;" parent="1" vertex="1">
                    <mxGeometry x="690" y="525" width="430" height="470" as="geometry"/>
                </mxCell>
                <mxCell id="4" value="" style="shape=partialRectangle;collapsible=0;dropTarget=0;pointerEvents=0;fillColor=none;top=0;left=0;bottom=1;right=0;points=[[0,0.5],[1,0.5]];portConstraint=eastwest;labelBackgroundColor=none;fontColor=#E4FDE1;strokeColor=#028090;labelBorderColor=none;" parent="3" vertex="1">
                    <mxGeometry y="30" width="430" height="30" as="geometry"/>
                </mxCell>
                <mxCell id="5" value="PK" style="shape=partialRectangle;connectable=0;fillColor=none;top=0;left=0;bottom=0;right=0;fontStyle=1;overflow=hidden;labelBackgroundColor=none;fontColor=#E4FDE1;strokeColor=#028090;labelBorderColor=none;" parent="4" vertex="1">
                    <mxGeometry width="30" height="30" as="geometry"/>
                </mxCell>
                <mxCell id="6" value="UniqueID" style="shape=partialRectangle;connectable=0;fillColor=none;top=0;left=0;bottom=0;right=0;align=left;spacingLeft=6;fontStyle=5;overflow=hidden;labelBackgroundColor=none;fontColor=#E4FDE1;strokeColor=#028090;labelBorderColor=none;" parent="4" vertex="1">
                    <mxGeometry x="30" width="90" height="30" as="geometry"/>
                </mxCell>
                <mxCell id="16" value="BIGINT" style="shape=partialRectangle;connectable=0;fillColor=none;top=0;left=0;bottom=0;right=0;align=left;spacingLeft=6;fontStyle=5;overflow=hidden;labelBackgroundColor=none;fontColor=#E4FDE1;strokeColor=#028090;labelBorderColor=none;" parent="4" vertex="1">
                    <mxGeometry x="120" width="100" height="30" as="geometry"/>
                </mxCell>
                <mxCell id="84" value="UNIQUE KEY | AUTO_INCREMENT" style="shape=partialRectangle;connectable=0;fillColor=none;top=0;left=0;bottom=0;right=0;align=left;spacingLeft=6;fontStyle=5;overflow=hidden;labelBackgroundColor=none;fontColor=#E4FDE1;strokeColor=#028090;labelBorderColor=none;" parent="4" vertex="1">
                    <mxGeometry x="220" width="210" height="30" as="geometry"/>
                </mxCell>
                <mxCell id="7" value="" style="shape=partialRectangle;collapsible=0;dropTarget=0;pointerEvents=0;fillColor=none;top=0;left=0;bottom=0;right=0;points=[[0,0.5],[1,0.5]];portConstraint=eastwest;labelBackgroundColor=none;fontColor=#E4FDE1;strokeColor=#028090;labelBorderColor=none;" parent="3" vertex="1">
                    <mxGeometry y="60" width="430" height="30" as="geometry"/>
                </mxCell>
                <mxCell id="8" value="" style="shape=partialRectangle;connectable=0;fillColor=none;top=0;left=0;bottom=0;right=0;editable=1;overflow=hidden;labelBackgroundColor=none;fontColor=#E4FDE1;strokeColor=#028090;labelBorderColor=none;" parent="7" vertex="1">
                    <mxGeometry width="30" height="30" as="geometry"/>
                </mxCell>
                <mxCell id="9" value="Title" style="shape=partialRectangle;connectable=0;fillColor=none;top=0;left=0;bottom=0;right=0;align=left;spacingLeft=6;overflow=hidden;labelBackgroundColor=none;fontColor=#E4FDE1;strokeColor=#028090;labelBorderColor=none;" parent="7" vertex="1">
                    <mxGeometry x="30" width="90" height="30" as="geometry"/>
                </mxCell>
                <mxCell id="17" value="VARCHAR(250)" style="shape=partialRectangle;connectable=0;fillColor=none;top=0;left=0;bottom=0;right=0;align=left;spacingLeft=6;overflow=hidden;labelBackgroundColor=none;fontColor=#E4FDE1;strokeColor=#028090;labelBorderColor=none;" parent="7" vertex="1">
                    <mxGeometry x="120" width="100" height="30" as="geometry"/>
                </mxCell>
                <mxCell id="85" value="NOT NULL" style="shape=partialRectangle;connectable=0;fillColor=none;top=0;left=0;bottom=0;right=0;align=left;spacingLeft=6;overflow=hidden;labelBackgroundColor=none;fontColor=#E4FDE1;strokeColor=#028090;labelBorderColor=none;" parent="7" vertex="1">
                    <mxGeometry x="220" width="210" height="30" as="geometry"/>
                </mxCell>
                <mxCell id="10" value="" style="shape=partialRectangle;collapsible=0;dropTarget=0;pointerEvents=0;fillColor=none;top=0;left=0;bottom=0;right=0;points=[[0,0.5],[1,0.5]];portConstraint=eastwest;labelBackgroundColor=none;fontColor=#E4FDE1;strokeColor=#028090;labelBorderColor=none;" parent="3" vertex="1">
                    <mxGeometry y="90" width="430" height="30" as="geometry"/>
                </mxCell>
                <mxCell id="11" value="" style="shape=partialRectangle;connectable=0;fillColor=none;top=0;left=0;bottom=0;right=0;editable=1;overflow=hidden;labelBackgroundColor=none;fontColor=#E4FDE1;strokeColor=#028090;labelBorderColor=none;" parent="10" vertex="1">
                    <mxGeometry width="30" height="30" as="geometry"/>
                </mxCell>
                <mxCell id="12" value="Volume" style="shape=partialRectangle;connectable=0;fillColor=none;top=0;left=0;bottom=0;right=0;align=left;spacingLeft=6;overflow=hidden;labelBackgroundColor=none;fontColor=#E4FDE1;strokeColor=#028090;labelBorderColor=none;" parent="10" vertex="1">
                    <mxGeometry x="30" width="90" height="30" as="geometry"/>
                </mxCell>
                <mxCell id="18" value="VARCHAR (20)" style="shape=partialRectangle;connectable=0;fillColor=none;top=0;left=0;bottom=0;right=0;align=left;spacingLeft=6;overflow=hidden;labelBackgroundColor=none;fontColor=#E4FDE1;strokeColor=#028090;labelBorderColor=none;" parent="10" vertex="1">
                    <mxGeometry x="120" width="100" height="30" as="geometry"/>
                </mxCell>
                <mxCell id="86" value="NOT NULL" style="shape=partialRectangle;connectable=0;fillColor=none;top=0;left=0;bottom=0;right=0;align=left;spacingLeft=6;overflow=hidden;labelBackgroundColor=none;fontColor=#E4FDE1;strokeColor=#028090;labelBorderColor=none;" parent="10" vertex="1">
                    <mxGeometry x="220" width="210" height="30" as="geometry"/>
                </mxCell>
                <mxCell id="20" value="" style="shape=partialRectangle;collapsible=0;dropTarget=0;pointerEvents=0;fillColor=none;top=0;left=0;bottom=0;right=0;points=[[0,0.5],[1,0.5]];portConstraint=eastwest;labelBackgroundColor=none;fontColor=#E4FDE1;strokeColor=#028090;labelBorderColor=none;" parent="3" vertex="1">
                    <mxGeometry y="120" width="430" height="30" as="geometry"/>
                </mxCell>
                <mxCell id="21" value="" style="shape=partialRectangle;connectable=0;fillColor=none;top=0;left=0;bottom=0;right=0;editable=1;overflow=hidden;labelBackgroundColor=none;fontColor=#E4FDE1;strokeColor=#028090;labelBorderColor=none;" parent="20" vertex="1">
                    <mxGeometry width="30" height="30" as="geometry"/>
                </mxCell>
                <mxCell id="22" value="Sale_date" style="shape=partialRectangle;connectable=0;fillColor=none;top=0;left=0;bottom=0;right=0;align=left;spacingLeft=6;overflow=hidden;labelBackgroundColor=none;fontColor=#E4FDE1;strokeColor=#028090;labelBorderColor=none;" parent="20" vertex="1">
                    <mxGeometry x="30" width="90" height="30" as="geometry"/>
                </mxCell>
                <mxCell id="23" value="DATE" style="shape=partialRectangle;connectable=0;fillColor=none;top=0;left=0;bottom=0;right=0;align=left;spacingLeft=6;overflow=hidden;labelBackgroundColor=none;fontColor=#E4FDE1;strokeColor=#028090;labelBorderColor=none;" parent="20" vertex="1">
                    <mxGeometry x="120" width="100" height="30" as="geometry"/>
                </mxCell>
                <mxCell id="87" value="" style="shape=partialRectangle;connectable=0;fillColor=none;top=0;left=0;bottom=0;right=0;align=left;spacingLeft=6;overflow=hidden;labelBackgroundColor=none;fontColor=#E4FDE1;strokeColor=#028090;labelBorderColor=none;" parent="20" vertex="1">
                    <mxGeometry x="220" width="210" height="30" as="geometry"/>
                </mxCell>
                <mxCell id="24" value="" style="shape=partialRectangle;collapsible=0;dropTarget=0;pointerEvents=0;fillColor=none;top=0;left=0;bottom=0;right=0;points=[[0,0.5],[1,0.5]];portConstraint=eastwest;labelBackgroundColor=none;fontColor=#E4FDE1;strokeColor=#028090;labelBorderColor=none;" parent="3" vertex="1">
                    <mxGeometry y="150" width="430" height="30" as="geometry"/>
                </mxCell>
                <mxCell id="25" value="" style="shape=partialRectangle;connectable=0;fillColor=none;top=0;left=0;bottom=0;right=0;editable=1;overflow=hidden;labelBackgroundColor=none;fontColor=#E4FDE1;strokeColor=#028090;labelBorderColor=none;" parent="24" vertex="1">
                    <mxGeometry width="30" height="30" as="geometry"/>
                </mxCell>
                <mxCell id="26" value="Page_count" style="shape=partialRectangle;connectable=0;fillColor=none;top=0;left=0;bottom=0;right=0;align=left;spacingLeft=6;overflow=hidden;labelBackgroundColor=none;fontColor=#E4FDE1;strokeColor=#028090;labelBorderColor=none;" parent="24" vertex="1">
                    <mxGeometry x="30" width="90" height="30" as="geometry"/>
                </mxCell>
                <mxCell id="27" value="SMALLINT" style="shape=partialRectangle;connectable=0;fillColor=none;top=0;left=0;bottom=0;right=0;align=left;spacingLeft=6;overflow=hidden;labelBackgroundColor=none;fontColor=#E4FDE1;strokeColor=#028090;labelBorderColor=none;" parent="24" vertex="1">
                    <mxGeometry x="120" width="100" height="30" as="geometry"/>
                </mxCell>
                <mxCell id="88" style="shape=partialRectangle;connectable=0;fillColor=none;top=0;left=0;bottom=0;right=0;align=left;spacingLeft=6;overflow=hidden;labelBackgroundColor=none;fontColor=#E4FDE1;strokeColor=#028090;labelBorderColor=none;" parent="24" vertex="1">
                    <mxGeometry x="220" width="210" height="30" as="geometry"/>
                </mxCell>
                <mxCell id="13" value="" style="shape=partialRectangle;collapsible=0;dropTarget=0;pointerEvents=0;fillColor=none;top=0;left=0;bottom=0;right=0;points=[[0,0.5],[1,0.5]];portConstraint=eastwest;labelBackgroundColor=none;fontColor=#E4FDE1;strokeColor=#028090;labelBorderColor=none;" parent="3" vertex="1">
                    <mxGeometry y="180" width="430" height="30" as="geometry"/>
                </mxCell>
                <mxCell id="14" value="FK" style="shape=partialRectangle;connectable=0;fillColor=none;top=0;left=0;bottom=0;right=0;editable=1;overflow=hidden;labelBackgroundColor=none;fontColor=#E4FDE1;strokeColor=#028090;labelBorderColor=none;" parent="13" vertex="1">
                    <mxGeometry width="30" height="30" as="geometry"/>
                </mxCell>
                <mxCell id="15" value="serie_id" style="shape=partialRectangle;connectable=0;fillColor=none;top=0;left=0;bottom=0;right=0;align=left;spacingLeft=6;overflow=hidden;labelBackgroundColor=none;fontColor=#E4FDE1;strokeColor=#028090;labelBorderColor=none;" parent="13" vertex="1">
                    <mxGeometry x="30" width="90" height="30" as="geometry"/>
                </mxCell>
                <mxCell id="19" value="BIGINT" style="shape=partialRectangle;connectable=0;fillColor=none;top=0;left=0;bottom=0;right=0;align=left;spacingLeft=6;overflow=hidden;labelBackgroundColor=none;fontColor=#E4FDE1;strokeColor=#028090;labelBorderColor=none;" parent="13" vertex="1">
                    <mxGeometry x="120" width="100" height="30" as="geometry"/>
                </mxCell>
                <mxCell id="89" style="shape=partialRectangle;connectable=0;fillColor=none;top=0;left=0;bottom=0;right=0;align=left;spacingLeft=6;overflow=hidden;labelBackgroundColor=none;fontColor=#E4FDE1;strokeColor=#028090;labelBorderColor=none;" parent="13" vertex="1">
                    <mxGeometry x="220" width="210" height="30" as="geometry"/>
                </mxCell>
                <mxCell id="55" value="" style="shape=partialRectangle;collapsible=0;dropTarget=0;pointerEvents=0;fillColor=none;top=0;left=0;bottom=0;right=0;points=[[0,0.5],[1,0.5]];portConstraint=eastwest;labelBackgroundColor=none;fontColor=#E4FDE1;strokeColor=#028090;labelBorderColor=none;" parent="3" vertex="1">
                    <mxGeometry y="210" width="430" height="30" as="geometry"/>
                </mxCell>
                <mxCell id="56" value="" style="shape=partialRectangle;connectable=0;fillColor=none;top=0;left=0;bottom=0;right=0;editable=1;overflow=hidden;labelBackgroundColor=none;fontColor=#E4FDE1;strokeColor=#028090;labelBorderColor=none;" parent="55" vertex="1">
                    <mxGeometry width="30" height="30" as="geometry"/>
                </mxCell>
                <mxCell id="57" value="Price" style="shape=partialRectangle;connectable=0;fillColor=none;top=0;left=0;bottom=0;right=0;align=left;spacingLeft=6;overflow=hidden;labelBackgroundColor=none;fontColor=#E4FDE1;strokeColor=#028090;labelBorderColor=none;" parent="55" vertex="1">
                    <mxGeometry x="30" width="90" height="30" as="geometry"/>
                </mxCell>
                <mxCell id="58" value="FLOAT (6,2)" style="shape=partialRectangle;connectable=0;fillColor=none;top=0;left=0;bottom=0;right=0;align=left;spacingLeft=6;overflow=hidden;labelBackgroundColor=none;fontColor=#E4FDE1;strokeColor=#028090;labelBorderColor=none;" parent="55" vertex="1">
                    <mxGeometry x="120" width="100" height="30" as="geometry"/>
                </mxCell>
                <mxCell id="90" style="shape=partialRectangle;connectable=0;fillColor=none;top=0;left=0;bottom=0;right=0;align=left;spacingLeft=6;overflow=hidden;labelBackgroundColor=none;fontColor=#E4FDE1;strokeColor=#028090;labelBorderColor=none;" parent="55" vertex="1">
                    <mxGeometry x="220" width="210" height="30" as="geometry"/>
                </mxCell>
                <mxCell id="76" style="shape=partialRectangle;collapsible=0;dropTarget=0;pointerEvents=0;fillColor=none;top=0;left=0;bottom=0;right=0;points=[[0,0.5],[1,0.5]];portConstraint=eastwest;labelBackgroundColor=none;fontColor=#E4FDE1;strokeColor=#028090;labelBorderColor=none;" parent="3" vertex="1">
                    <mxGeometry y="240" width="430" height="30" as="geometry"/>
                </mxCell>
                <mxCell id="77" style="shape=partialRectangle;connectable=0;fillColor=none;top=0;left=0;bottom=0;right=0;editable=1;overflow=hidden;labelBackgroundColor=none;fontColor=#E4FDE1;strokeColor=#028090;labelBorderColor=none;" parent="76" vertex="1">
                    <mxGeometry width="30" height="30" as="geometry"/>
                </mxCell>
                <mxCell id="78" value="Slug" style="shape=partialRectangle;connectable=0;fillColor=none;top=0;left=0;bottom=0;right=0;align=left;spacingLeft=6;overflow=hidden;labelBackgroundColor=none;fontColor=#E4FDE1;strokeColor=#028090;labelBorderColor=none;" parent="76" vertex="1">
                    <mxGeometry x="30" width="90" height="30" as="geometry"/>
                </mxCell>
                <mxCell id="79" value="TEXT" style="shape=partialRectangle;connectable=0;fillColor=none;top=0;left=0;bottom=0;right=0;align=left;spacingLeft=6;overflow=hidden;labelBackgroundColor=none;fontColor=#E4FDE1;strokeColor=#028090;labelBorderColor=none;" parent="76" vertex="1">
                    <mxGeometry x="120" width="100" height="30" as="geometry"/>
                </mxCell>
                <mxCell id="91" value="NOT NULL" style="shape=partialRectangle;connectable=0;fillColor=none;top=0;left=0;bottom=0;right=0;align=left;spacingLeft=6;overflow=hidden;labelBackgroundColor=none;fontColor=#E4FDE1;strokeColor=#028090;labelBorderColor=none;" parent="76" vertex="1">
                    <mxGeometry x="220" width="210" height="30" as="geometry"/>
                </mxCell>
                <mxCell id="194" style="shape=partialRectangle;collapsible=0;dropTarget=0;pointerEvents=0;fillColor=none;top=0;left=0;bottom=0;right=0;points=[[0,0.5],[1,0.5]];portConstraint=eastwest;labelBackgroundColor=none;fontColor=#E4FDE1;strokeColor=#028090;labelBorderColor=none;" parent="3" vertex="1">
                    <mxGeometry y="270" width="430" height="40" as="geometry"/>
                </mxCell>
                <mxCell id="195" style="shape=partialRectangle;connectable=0;fillColor=none;top=0;left=0;bottom=0;right=0;editable=1;overflow=hidden;labelBackgroundColor=none;fontColor=#E4FDE1;strokeColor=#028090;labelBorderColor=none;" parent="194" vertex="1">
                    <mxGeometry width="30" height="40" as="geometry"/>
                </mxCell>
                <mxCell id="196" value="Cover" style="shape=partialRectangle;connectable=0;fillColor=none;top=0;left=0;bottom=0;right=0;align=left;spacingLeft=6;overflow=hidden;labelBackgroundColor=none;fontColor=#E4FDE1;strokeColor=#028090;labelBorderColor=none;" parent="194" vertex="1">
                    <mxGeometry x="30" width="90" height="40" as="geometry"/>
                </mxCell>
                <mxCell id="197" value="TEXT" style="shape=partialRectangle;connectable=0;fillColor=none;top=0;left=0;bottom=0;right=0;align=left;spacingLeft=6;overflow=hidden;labelBackgroundColor=none;fontColor=#E4FDE1;strokeColor=#028090;labelBorderColor=none;" parent="194" vertex="1">
                    <mxGeometry x="120" width="100" height="40" as="geometry"/>
                </mxCell>
                <mxCell id="198" value="" style="shape=partialRectangle;connectable=0;fillColor=none;top=0;left=0;bottom=0;right=0;align=left;spacingLeft=6;overflow=hidden;labelBackgroundColor=none;fontColor=#E4FDE1;strokeColor=#028090;labelBorderColor=none;" parent="194" vertex="1">
                    <mxGeometry x="220" width="210" height="40" as="geometry"/>
                </mxCell>
                <mxCell id="275" style="shape=partialRectangle;collapsible=0;dropTarget=0;pointerEvents=0;fillColor=none;top=0;left=0;bottom=0;right=0;points=[[0,0.5],[1,0.5]];portConstraint=eastwest;labelBackgroundColor=none;fontColor=#E4FDE1;strokeColor=#028090;labelBorderColor=none;" parent="3" vertex="1">
                    <mxGeometry y="310" width="430" height="30" as="geometry"/>
                </mxCell>
                <mxCell id="276" style="shape=partialRectangle;connectable=0;fillColor=none;top=0;left=0;bottom=0;right=0;editable=1;overflow=hidden;labelBackgroundColor=none;fontColor=#E4FDE1;strokeColor=#028090;labelBorderColor=none;" parent="275" vertex="1">
                    <mxGeometry width="30" height="30" as="geometry"/>
                </mxCell>
                <mxCell id="277" value="Gallery" style="shape=partialRectangle;connectable=0;fillColor=none;top=0;left=0;bottom=0;right=0;align=left;spacingLeft=6;overflow=hidden;labelBackgroundColor=none;fontColor=#E4FDE1;strokeColor=#028090;labelBorderColor=none;" parent="275" vertex="1">
                    <mxGeometry x="30" width="90" height="30" as="geometry"/>
                </mxCell>
                <mxCell id="278" value="TEXT" style="shape=partialRectangle;connectable=0;fillColor=none;top=0;left=0;bottom=0;right=0;align=left;spacingLeft=6;overflow=hidden;labelBackgroundColor=none;fontColor=#E4FDE1;strokeColor=#028090;labelBorderColor=none;" parent="275" vertex="1">
                    <mxGeometry x="120" width="100" height="30" as="geometry"/>
                </mxCell>
                <mxCell id="279" value="" style="shape=partialRectangle;connectable=0;fillColor=none;top=0;left=0;bottom=0;right=0;align=left;spacingLeft=6;overflow=hidden;labelBackgroundColor=none;fontColor=#E4FDE1;strokeColor=#028090;labelBorderColor=none;" parent="275" vertex="1">
                    <mxGeometry x="220" width="210" height="30" as="geometry"/>
                </mxCell>
                <mxCell id="260" style="shape=partialRectangle;collapsible=0;dropTarget=0;pointerEvents=0;fillColor=none;top=0;left=0;bottom=0;right=0;points=[[0,0.5],[1,0.5]];portConstraint=eastwest;labelBackgroundColor=none;fontColor=#E4FDE1;strokeColor=#028090;labelBorderColor=none;" parent="3" vertex="1">
                    <mxGeometry y="340" width="430" height="30" as="geometry"/>
                </mxCell>
                <mxCell id="261" style="shape=partialRectangle;connectable=0;fillColor=none;top=0;left=0;bottom=0;right=0;editable=1;overflow=hidden;labelBackgroundColor=none;fontColor=#E4FDE1;strokeColor=#028090;labelBorderColor=none;" parent="260" vertex="1">
                    <mxGeometry width="30" height="30" as="geometry"/>
                </mxCell>
                <mxCell id="262" value="Sold" style="shape=partialRectangle;connectable=0;fillColor=none;top=0;left=0;bottom=0;right=0;align=left;spacingLeft=6;overflow=hidden;labelBackgroundColor=none;fontColor=#E4FDE1;strokeColor=#028090;labelBorderColor=none;" parent="260" vertex="1">
                    <mxGeometry x="30" width="90" height="30" as="geometry"/>
                </mxCell>
                <mxCell id="263" value="SMALLINT" style="shape=partialRectangle;connectable=0;fillColor=none;top=0;left=0;bottom=0;right=0;align=left;spacingLeft=6;overflow=hidden;labelBackgroundColor=none;fontColor=#E4FDE1;strokeColor=#028090;labelBorderColor=none;" parent="260" vertex="1">
                    <mxGeometry x="120" width="100" height="30" as="geometry"/>
                </mxCell>
                <mxCell id="264" value="" style="shape=partialRectangle;connectable=0;fillColor=none;top=0;left=0;bottom=0;right=0;align=left;spacingLeft=6;overflow=hidden;labelBackgroundColor=none;fontColor=#E4FDE1;strokeColor=#028090;labelBorderColor=none;" parent="260" vertex="1">
                    <mxGeometry x="220" width="210" height="30" as="geometry"/>
                </mxCell>
                <mxCell id="265" style="shape=partialRectangle;collapsible=0;dropTarget=0;pointerEvents=0;fillColor=none;top=0;left=0;bottom=0;right=0;points=[[0,0.5],[1,0.5]];portConstraint=eastwest;labelBackgroundColor=none;fontColor=#E4FDE1;strokeColor=#028090;labelBorderColor=none;" parent="3" vertex="1">
                    <mxGeometry y="370" width="430" height="30" as="geometry"/>
                </mxCell>
                <mxCell id="266" style="shape=partialRectangle;connectable=0;fillColor=none;top=0;left=0;bottom=0;right=0;editable=1;overflow=hidden;labelBackgroundColor=none;fontColor=#E4FDE1;strokeColor=#028090;labelBorderColor=none;" parent="265" vertex="1">
                    <mxGeometry width="30" height="30" as="geometry"/>
                </mxCell>
                <mxCell id="267" value="Description" style="shape=partialRectangle;connectable=0;fillColor=none;top=0;left=0;bottom=0;right=0;align=left;spacingLeft=6;overflow=hidden;labelBackgroundColor=none;fontColor=#E4FDE1;strokeColor=#028090;labelBorderColor=none;" parent="265" vertex="1">
                    <mxGeometry x="30" width="90" height="30" as="geometry"/>
                </mxCell>
                <mxCell id="268" value="TEXT" style="shape=partialRectangle;connectable=0;fillColor=none;top=0;left=0;bottom=0;right=0;align=left;spacingLeft=6;overflow=hidden;labelBackgroundColor=none;fontColor=#E4FDE1;strokeColor=#028090;labelBorderColor=none;" parent="265" vertex="1">
                    <mxGeometry x="120" width="100" height="30" as="geometry"/>
                </mxCell>
                <mxCell id="269" value="" style="shape=partialRectangle;connectable=0;fillColor=none;top=0;left=0;bottom=0;right=0;align=left;spacingLeft=6;overflow=hidden;labelBackgroundColor=none;fontColor=#E4FDE1;strokeColor=#028090;labelBorderColor=none;" parent="265" vertex="1">
                    <mxGeometry x="220" width="210" height="30" as="geometry"/>
                </mxCell>
                <mxCell id="80" style="shape=partialRectangle;collapsible=0;dropTarget=0;pointerEvents=0;fillColor=none;top=0;left=0;bottom=0;right=0;points=[[0,0.5],[1,0.5]];portConstraint=eastwest;labelBackgroundColor=none;fontColor=#E4FDE1;strokeColor=#028090;labelBorderColor=none;" parent="3" vertex="1">
                    <mxGeometry y="400" width="430" height="30" as="geometry"/>
                </mxCell>
                <mxCell id="81" style="shape=partialRectangle;connectable=0;fillColor=none;top=0;left=0;bottom=0;right=0;editable=1;overflow=hidden;labelBackgroundColor=none;fontColor=#E4FDE1;strokeColor=#028090;labelBorderColor=none;" parent="80" vertex="1">
                    <mxGeometry width="30" height="30" as="geometry"/>
                </mxCell>
                <mxCell id="82" value="Available" style="shape=partialRectangle;connectable=0;fillColor=none;top=0;left=0;bottom=0;right=0;align=left;spacingLeft=6;overflow=hidden;labelBackgroundColor=none;fontColor=#E4FDE1;strokeColor=#028090;labelBorderColor=none;" parent="80" vertex="1">
                    <mxGeometry x="30" width="90" height="30" as="geometry"/>
                </mxCell>
                <mxCell id="83" value="TINYINT" style="shape=partialRectangle;connectable=0;fillColor=none;top=0;left=0;bottom=0;right=0;align=left;spacingLeft=6;overflow=hidden;labelBackgroundColor=none;fontColor=#E4FDE1;strokeColor=#028090;labelBorderColor=none;" parent="80" vertex="1">
                    <mxGeometry x="120" width="100" height="30" as="geometry"/>
                </mxCell>
                <mxCell id="92" style="shape=partialRectangle;connectable=0;fillColor=none;top=0;left=0;bottom=0;right=0;align=left;spacingLeft=6;overflow=hidden;labelBackgroundColor=none;fontColor=#E4FDE1;strokeColor=#028090;labelBorderColor=none;" parent="80" vertex="1">
                    <mxGeometry x="220" width="210" height="30" as="geometry"/>
                </mxCell>
                <mxCell id="182" style="shape=partialRectangle;collapsible=0;dropTarget=0;pointerEvents=0;fillColor=none;top=0;left=0;bottom=0;right=0;points=[[0,0.5],[1,0.5]];portConstraint=eastwest;labelBackgroundColor=none;fontColor=#E4FDE1;strokeColor=#028090;labelBorderColor=none;" parent="3" vertex="1">
                    <mxGeometry y="430" width="430" height="30" as="geometry"/>
                </mxCell>
                <mxCell id="183" value="FK" style="shape=partialRectangle;connectable=0;fillColor=none;top=0;left=0;bottom=0;right=0;editable=1;overflow=hidden;labelBackgroundColor=none;fontColor=#E4FDE1;strokeColor=#028090;labelBorderColor=none;" parent="182" vertex="1">
                    <mxGeometry width="30" height="30" as="geometry"/>
                </mxCell>
                <mxCell id="184" value="Category_id" style="shape=partialRectangle;connectable=0;fillColor=none;top=0;left=0;bottom=0;right=0;align=left;spacingLeft=6;overflow=hidden;labelBackgroundColor=none;fontColor=#E4FDE1;strokeColor=#028090;labelBorderColor=none;" parent="182" vertex="1">
                    <mxGeometry x="30" width="90" height="30" as="geometry"/>
                </mxCell>
                <mxCell id="185" value="BIGINT" style="shape=partialRectangle;connectable=0;fillColor=none;top=0;left=0;bottom=0;right=0;align=left;spacingLeft=6;overflow=hidden;labelBackgroundColor=none;fontColor=#E4FDE1;strokeColor=#028090;labelBorderColor=none;" parent="182" vertex="1">
                    <mxGeometry x="120" width="100" height="30" as="geometry"/>
                </mxCell>
                <mxCell id="186" value="NOT NULL" style="shape=partialRectangle;connectable=0;fillColor=none;top=0;left=0;bottom=0;right=0;align=left;spacingLeft=6;overflow=hidden;labelBackgroundColor=none;fontColor=#E4FDE1;strokeColor=#028090;labelBorderColor=none;" parent="182" vertex="1">
                    <mxGeometry x="220" width="210" height="30" as="geometry"/>
                </mxCell>
                <mxCell id="59" value="SERIE" style="shape=table;startSize=30;container=1;collapsible=1;childLayout=tableLayout;fixedRows=1;rowLines=0;fontStyle=1;align=center;resizeLast=1;labelBackgroundColor=none;fontColor=#E4FDE1;fillColor=#F45B69;strokeColor=#028090;labelBorderColor=none;" parent="1" vertex="1">
                    <mxGeometry x="1329" y="530" width="449.9999999999998" height="219.9999999999999" as="geometry"/>
                </mxCell>
                <mxCell id="60" value="" style="shape=partialRectangle;collapsible=0;dropTarget=0;pointerEvents=0;fillColor=none;top=0;left=0;bottom=1;right=0;points=[[0,0.5],[1,0.5]];portConstraint=eastwest;labelBackgroundColor=none;fontColor=#E4FDE1;strokeColor=#028090;labelBorderColor=none;" parent="59" vertex="1">
                    <mxGeometry y="30" width="449.9999999999998" height="30" as="geometry"/>
                </mxCell>
                <mxCell id="61" value="PK" style="shape=partialRectangle;connectable=0;fillColor=none;top=0;left=0;bottom=0;right=0;fontStyle=1;overflow=hidden;labelBackgroundColor=none;fontColor=#E4FDE1;strokeColor=#028090;labelBorderColor=none;" parent="60" vertex="1">
                    <mxGeometry width="30" height="30" as="geometry"/>
                </mxCell>
                <mxCell id="62" value="UniqueID" style="shape=partialRectangle;connectable=0;fillColor=none;top=0;left=0;bottom=0;right=0;align=left;spacingLeft=6;fontStyle=5;overflow=hidden;labelBackgroundColor=none;fontColor=#E4FDE1;strokeColor=#028090;labelBorderColor=none;" parent="60" vertex="1">
                    <mxGeometry x="30" width="100" height="30" as="geometry"/>
                </mxCell>
                <mxCell id="72" value="BIGINT" style="shape=partialRectangle;connectable=0;fillColor=none;top=0;left=0;bottom=0;right=0;align=left;spacingLeft=6;fontStyle=5;overflow=hidden;labelBackgroundColor=none;fontColor=#E4FDE1;strokeColor=#028090;labelBorderColor=none;" parent="60" vertex="1">
                    <mxGeometry x="130" width="110" height="30" as="geometry"/>
                </mxCell>
                <mxCell id="93" value="UNIQUE KEY | AUTO_INCREMENT" style="shape=partialRectangle;connectable=0;fillColor=none;top=0;left=0;bottom=0;right=0;align=left;spacingLeft=6;fontStyle=5;overflow=hidden;labelBackgroundColor=none;fontColor=#E4FDE1;strokeColor=#028090;labelBorderColor=none;" parent="60" vertex="1">
                    <mxGeometry x="240" width="209.99999999999977" height="30" as="geometry"/>
                </mxCell>
                <mxCell id="63" value="" style="shape=partialRectangle;collapsible=0;dropTarget=0;pointerEvents=0;fillColor=none;top=0;left=0;bottom=0;right=0;points=[[0,0.5],[1,0.5]];portConstraint=eastwest;labelBackgroundColor=none;fontColor=#E4FDE1;strokeColor=#028090;labelBorderColor=none;" parent="59" vertex="1">
                    <mxGeometry y="60" width="449.9999999999998" height="30" as="geometry"/>
                </mxCell>
                <mxCell id="64" value="" style="shape=partialRectangle;connectable=0;fillColor=none;top=0;left=0;bottom=0;right=0;editable=1;overflow=hidden;labelBackgroundColor=none;fontColor=#E4FDE1;strokeColor=#028090;labelBorderColor=none;" parent="63" vertex="1">
                    <mxGeometry width="30" height="30" as="geometry"/>
                </mxCell>
                <mxCell id="65" value="Name" style="shape=partialRectangle;connectable=0;fillColor=none;top=0;left=0;bottom=0;right=0;align=left;spacingLeft=6;overflow=hidden;labelBackgroundColor=none;fontColor=#E4FDE1;strokeColor=#028090;labelBorderColor=none;" parent="63" vertex="1">
                    <mxGeometry x="30" width="100" height="30" as="geometry"/>
                </mxCell>
                <mxCell id="73" value="VARCHAR (250)" style="shape=partialRectangle;connectable=0;fillColor=none;top=0;left=0;bottom=0;right=0;align=left;spacingLeft=6;overflow=hidden;labelBackgroundColor=none;fontColor=#E4FDE1;strokeColor=#028090;labelBorderColor=none;" parent="63" vertex="1">
                    <mxGeometry x="130" width="110" height="30" as="geometry"/>
                </mxCell>
                <mxCell id="94" value="NOT NULL" style="shape=partialRectangle;connectable=0;fillColor=none;top=0;left=0;bottom=0;right=0;align=left;spacingLeft=6;overflow=hidden;labelBackgroundColor=none;fontColor=#E4FDE1;strokeColor=#028090;labelBorderColor=none;" parent="63" vertex="1">
                    <mxGeometry x="240" width="209.99999999999977" height="30" as="geometry"/>
                </mxCell>
                <mxCell id="199" value="" style="shape=partialRectangle;collapsible=0;dropTarget=0;pointerEvents=0;fillColor=none;top=0;left=0;bottom=0;right=0;points=[[0,0.5],[1,0.5]];portConstraint=eastwest;labelBackgroundColor=none;fontColor=#E4FDE1;strokeColor=#028090;labelBorderColor=none;" parent="59" vertex="1">
                    <mxGeometry y="90" width="449.9999999999998" height="30" as="geometry"/>
                </mxCell>
                <mxCell id="200" value="" style="shape=partialRectangle;connectable=0;fillColor=none;top=0;left=0;bottom=0;right=0;editable=1;overflow=hidden;labelBackgroundColor=none;fontColor=#E4FDE1;strokeColor=#028090;labelBorderColor=none;" parent="199" vertex="1">
                    <mxGeometry width="30" height="30" as="geometry"/>
                </mxCell>
                <mxCell id="201" value="Cover" style="shape=partialRectangle;connectable=0;fillColor=none;top=0;left=0;bottom=0;right=0;align=left;spacingLeft=6;overflow=hidden;labelBackgroundColor=none;fontColor=#E4FDE1;strokeColor=#028090;labelBorderColor=none;" parent="199" vertex="1">
                    <mxGeometry x="30" width="100" height="30" as="geometry"/>
                </mxCell>
                <mxCell id="202" value="TEXT" style="shape=partialRectangle;connectable=0;fillColor=none;top=0;left=0;bottom=0;right=0;align=left;spacingLeft=6;overflow=hidden;labelBackgroundColor=none;fontColor=#E4FDE1;strokeColor=#028090;labelBorderColor=none;" parent="199" vertex="1">
                    <mxGeometry x="130" width="110" height="30" as="geometry"/>
                </mxCell>
                <mxCell id="203" value="" style="shape=partialRectangle;connectable=0;fillColor=none;top=0;left=0;bottom=0;right=0;align=left;spacingLeft=6;overflow=hidden;labelBackgroundColor=none;fontColor=#E4FDE1;strokeColor=#028090;labelBorderColor=none;" parent="199" vertex="1">
                    <mxGeometry x="240" width="209.99999999999977" height="30" as="geometry"/>
                </mxCell>
                <mxCell id="270" value="" style="shape=partialRectangle;collapsible=0;dropTarget=0;pointerEvents=0;fillColor=none;top=0;left=0;bottom=0;right=0;points=[[0,0.5],[1,0.5]];portConstraint=eastwest;labelBackgroundColor=none;fontColor=#E4FDE1;strokeColor=#028090;labelBorderColor=none;" parent="59" vertex="1">
                    <mxGeometry y="120" width="449.9999999999998" height="30" as="geometry"/>
                </mxCell>
                <mxCell id="271" value="" style="shape=partialRectangle;connectable=0;fillColor=none;top=0;left=0;bottom=0;right=0;editable=1;overflow=hidden;labelBackgroundColor=none;fontColor=#E4FDE1;strokeColor=#028090;labelBorderColor=none;" parent="270" vertex="1">
                    <mxGeometry width="30" height="30" as="geometry"/>
                </mxCell>
                <mxCell id="272" value="Description" style="shape=partialRectangle;connectable=0;fillColor=none;top=0;left=0;bottom=0;right=0;align=left;spacingLeft=6;overflow=hidden;labelBackgroundColor=none;fontColor=#E4FDE1;strokeColor=#028090;labelBorderColor=none;" parent="270" vertex="1">
                    <mxGeometry x="30" width="100" height="30" as="geometry"/>
                </mxCell>
                <mxCell id="273" value="TEXT" style="shape=partialRectangle;connectable=0;fillColor=none;top=0;left=0;bottom=0;right=0;align=left;spacingLeft=6;overflow=hidden;labelBackgroundColor=none;fontColor=#E4FDE1;strokeColor=#028090;labelBorderColor=none;" parent="270" vertex="1">
                    <mxGeometry x="130" width="110" height="30" as="geometry"/>
                </mxCell>
                <mxCell id="274" value="" style="shape=partialRectangle;connectable=0;fillColor=none;top=0;left=0;bottom=0;right=0;align=left;spacingLeft=6;overflow=hidden;labelBackgroundColor=none;fontColor=#E4FDE1;strokeColor=#028090;labelBorderColor=none;" parent="270" vertex="1">
                    <mxGeometry x="240" width="209.99999999999977" height="30" as="geometry"/>
                </mxCell>
                <mxCell id="108" style="shape=partialRectangle;collapsible=0;dropTarget=0;pointerEvents=0;fillColor=none;top=0;left=0;bottom=0;right=0;points=[[0,0.5],[1,0.5]];portConstraint=eastwest;labelBackgroundColor=none;fontColor=#E4FDE1;strokeColor=#028090;labelBorderColor=none;" parent="59" vertex="1">
                    <mxGeometry y="150" width="449.9999999999998" height="30" as="geometry"/>
                </mxCell>
                <mxCell id="109" style="shape=partialRectangle;connectable=0;fillColor=none;top=0;left=0;bottom=0;right=0;editable=1;overflow=hidden;labelBackgroundColor=none;fontColor=#E4FDE1;strokeColor=#028090;labelBorderColor=none;" parent="108" vertex="1">
                    <mxGeometry width="30" height="30" as="geometry"/>
                </mxCell>
                <mxCell id="110" value="total_vol" style="shape=partialRectangle;connectable=0;fillColor=none;top=0;left=0;bottom=0;right=0;align=left;spacingLeft=6;overflow=hidden;labelBackgroundColor=none;fontColor=#E4FDE1;strokeColor=#028090;labelBorderColor=none;" parent="108" vertex="1">
                    <mxGeometry x="30" width="100" height="30" as="geometry"/>
                </mxCell>
                <mxCell id="111" value="SMALLINT" style="shape=partialRectangle;connectable=0;fillColor=none;top=0;left=0;bottom=0;right=0;align=left;spacingLeft=6;overflow=hidden;labelBackgroundColor=none;fontColor=#E4FDE1;strokeColor=#028090;labelBorderColor=none;" parent="108" vertex="1">
                    <mxGeometry x="130" width="110" height="30" as="geometry"/>
                </mxCell>
                <mxCell id="112" style="shape=partialRectangle;connectable=0;fillColor=none;top=0;left=0;bottom=0;right=0;align=left;spacingLeft=6;overflow=hidden;labelBackgroundColor=none;fontColor=#E4FDE1;strokeColor=#028090;labelBorderColor=none;" parent="108" vertex="1">
                    <mxGeometry x="240" width="209.99999999999977" height="30" as="geometry"/>
                </mxCell>
                <mxCell id="113" style="shape=partialRectangle;collapsible=0;dropTarget=0;pointerEvents=0;fillColor=none;top=0;left=0;bottom=0;right=0;points=[[0,0.5],[1,0.5]];portConstraint=eastwest;labelBackgroundColor=none;fontColor=#E4FDE1;strokeColor=#028090;labelBorderColor=none;" parent="59" vertex="1">
                    <mxGeometry y="180" width="449.9999999999998" height="30" as="geometry"/>
                </mxCell>
                <mxCell id="114" style="shape=partialRectangle;connectable=0;fillColor=none;top=0;left=0;bottom=0;right=0;editable=1;overflow=hidden;labelBackgroundColor=none;fontColor=#E4FDE1;strokeColor=#028090;labelBorderColor=none;" parent="113" vertex="1">
                    <mxGeometry width="30" height="30" as="geometry"/>
                </mxCell>
                <mxCell id="115" value="Slug" style="shape=partialRectangle;connectable=0;fillColor=none;top=0;left=0;bottom=0;right=0;align=left;spacingLeft=6;overflow=hidden;labelBackgroundColor=none;fontColor=#E4FDE1;strokeColor=#028090;labelBorderColor=none;" parent="113" vertex="1">
                    <mxGeometry x="30" width="100" height="30" as="geometry"/>
                </mxCell>
                <mxCell id="116" value="VARCHAR ( 250)" style="shape=partialRectangle;connectable=0;fillColor=none;top=0;left=0;bottom=0;right=0;align=left;spacingLeft=6;overflow=hidden;labelBackgroundColor=none;fontColor=#E4FDE1;strokeColor=#028090;labelBorderColor=none;" parent="113" vertex="1">
                    <mxGeometry x="130" width="110" height="30" as="geometry"/>
                </mxCell>
                <mxCell id="117" value="NOT NULL" style="shape=partialRectangle;connectable=0;fillColor=none;top=0;left=0;bottom=0;right=0;align=left;spacingLeft=6;overflow=hidden;labelBackgroundColor=none;fontColor=#E4FDE1;strokeColor=#028090;labelBorderColor=none;" parent="113" vertex="1">
                    <mxGeometry x="240" width="209.99999999999977" height="30" as="geometry"/>
                </mxCell>
                <mxCell id="97" value="TALENT" style="shape=table;startSize=30;container=1;collapsible=1;childLayout=tableLayout;fixedRows=1;rowLines=0;fontStyle=1;align=center;resizeLast=1;labelBackgroundColor=none;fontColor=#E4FDE1;fillColor=#F45B69;strokeColor=#028090;labelBorderColor=none;" parent="1" vertex="1">
                    <mxGeometry x="1329" y="835" width="449.9999999999998" height="190" as="geometry"/>
                </mxCell>
                <mxCell id="98" value="" style="shape=partialRectangle;collapsible=0;dropTarget=0;pointerEvents=0;fillColor=none;top=0;left=0;bottom=1;right=0;points=[[0,0.5],[1,0.5]];portConstraint=eastwest;labelBackgroundColor=none;fontColor=#E4FDE1;strokeColor=#028090;labelBorderColor=none;" parent="97" vertex="1">
                    <mxGeometry y="30" width="449.9999999999998" height="30" as="geometry"/>
                </mxCell>
                <mxCell id="99" value="PK" style="shape=partialRectangle;connectable=0;fillColor=none;top=0;left=0;bottom=0;right=0;fontStyle=1;overflow=hidden;labelBackgroundColor=none;fontColor=#E4FDE1;strokeColor=#028090;labelBorderColor=none;" parent="98" vertex="1">
                    <mxGeometry width="30" height="30" as="geometry"/>
                </mxCell>
                <mxCell id="100" value="UniqueID" style="shape=partialRectangle;connectable=0;fillColor=none;top=0;left=0;bottom=0;right=0;align=left;spacingLeft=6;fontStyle=5;overflow=hidden;labelBackgroundColor=none;fontColor=#E4FDE1;strokeColor=#028090;labelBorderColor=none;" parent="98" vertex="1">
                    <mxGeometry x="30" width="100" height="30" as="geometry"/>
                </mxCell>
                <mxCell id="101" value="BIGINT" style="shape=partialRectangle;connectable=0;fillColor=none;top=0;left=0;bottom=0;right=0;align=left;spacingLeft=6;fontStyle=5;overflow=hidden;labelBackgroundColor=none;fontColor=#E4FDE1;strokeColor=#028090;labelBorderColor=none;" parent="98" vertex="1">
                    <mxGeometry x="130" width="110" height="30" as="geometry"/>
                </mxCell>
                <mxCell id="102" value="UNIQUE KEY | AUTO_INCREMENT" style="shape=partialRectangle;connectable=0;fillColor=none;top=0;left=0;bottom=0;right=0;align=left;spacingLeft=6;fontStyle=5;overflow=hidden;labelBackgroundColor=none;fontColor=#E4FDE1;strokeColor=#028090;labelBorderColor=none;" parent="98" vertex="1">
                    <mxGeometry x="240" width="209.99999999999977" height="30" as="geometry"/>
                </mxCell>
                <mxCell id="103" value="" style="shape=partialRectangle;collapsible=0;dropTarget=0;pointerEvents=0;fillColor=none;top=0;left=0;bottom=0;right=0;points=[[0,0.5],[1,0.5]];portConstraint=eastwest;labelBackgroundColor=none;fontColor=#E4FDE1;strokeColor=#028090;labelBorderColor=none;" parent="97" vertex="1">
                    <mxGeometry y="60" width="449.9999999999998" height="30" as="geometry"/>
                </mxCell>
                <mxCell id="104" value="" style="shape=partialRectangle;connectable=0;fillColor=none;top=0;left=0;bottom=0;right=0;editable=1;overflow=hidden;labelBackgroundColor=none;fontColor=#E4FDE1;strokeColor=#028090;labelBorderColor=none;" parent="103" vertex="1">
                    <mxGeometry width="30" height="30" as="geometry"/>
                </mxCell>
                <mxCell id="105" value="Name" style="shape=partialRectangle;connectable=0;fillColor=none;top=0;left=0;bottom=0;right=0;align=left;spacingLeft=6;overflow=hidden;labelBackgroundColor=none;fontColor=#E4FDE1;strokeColor=#028090;labelBorderColor=none;" parent="103" vertex="1">
                    <mxGeometry x="30" width="100" height="30" as="geometry"/>
                </mxCell>
                <mxCell id="106" value="VARCHAR (250)" style="shape=partialRectangle;connectable=0;fillColor=none;top=0;left=0;bottom=0;right=0;align=left;spacingLeft=6;overflow=hidden;labelBackgroundColor=none;fontColor=#E4FDE1;strokeColor=#028090;labelBorderColor=none;" parent="103" vertex="1">
                    <mxGeometry x="130" width="110" height="30" as="geometry"/>
                </mxCell>
                <mxCell id="107" value="NOT NULL" style="shape=partialRectangle;connectable=0;fillColor=none;top=0;left=0;bottom=0;right=0;align=left;spacingLeft=6;overflow=hidden;labelBackgroundColor=none;fontColor=#E4FDE1;strokeColor=#028090;labelBorderColor=none;" parent="103" vertex="1">
                    <mxGeometry x="240" width="209.99999999999977" height="30" as="geometry"/>
                </mxCell>
                <mxCell id="144" value="" style="shape=partialRectangle;collapsible=0;dropTarget=0;pointerEvents=0;fillColor=none;top=0;left=0;bottom=0;right=0;points=[[0,0.5],[1,0.5]];portConstraint=eastwest;labelBackgroundColor=none;fontColor=#E4FDE1;strokeColor=#028090;labelBorderColor=none;" parent="97" vertex="1">
                    <mxGeometry y="90" width="449.9999999999998" height="30" as="geometry"/>
                </mxCell>
                <mxCell id="145" value="" style="shape=partialRectangle;connectable=0;fillColor=none;top=0;left=0;bottom=0;right=0;editable=1;overflow=hidden;labelBackgroundColor=none;fontColor=#E4FDE1;strokeColor=#028090;labelBorderColor=none;" parent="144" vertex="1">
                    <mxGeometry width="30" height="30" as="geometry"/>
                </mxCell>
                <mxCell id="146" value="Bio" style="shape=partialRectangle;connectable=0;fillColor=none;top=0;left=0;bottom=0;right=0;align=left;spacingLeft=6;overflow=hidden;labelBackgroundColor=none;fontColor=#E4FDE1;strokeColor=#028090;labelBorderColor=none;" parent="144" vertex="1">
                    <mxGeometry x="30" width="100" height="30" as="geometry"/>
                </mxCell>
                <mxCell id="147" value="TEXT" style="shape=partialRectangle;connectable=0;fillColor=none;top=0;left=0;bottom=0;right=0;align=left;spacingLeft=6;overflow=hidden;labelBackgroundColor=none;fontColor=#E4FDE1;strokeColor=#028090;labelBorderColor=none;" parent="144" vertex="1">
                    <mxGeometry x="130" width="110" height="30" as="geometry"/>
                </mxCell>
                <mxCell id="148" style="shape=partialRectangle;connectable=0;fillColor=none;top=0;left=0;bottom=0;right=0;align=left;spacingLeft=6;overflow=hidden;labelBackgroundColor=none;fontColor=#E4FDE1;strokeColor=#028090;labelBorderColor=none;" parent="144" vertex="1">
                    <mxGeometry x="240" width="209.99999999999977" height="30" as="geometry"/>
                </mxCell>
                <mxCell id="480" style="shape=partialRectangle;collapsible=0;dropTarget=0;pointerEvents=0;fillColor=none;top=0;left=0;bottom=0;right=0;points=[[0,0.5],[1,0.5]];portConstraint=eastwest;labelBackgroundColor=none;fontColor=#E4FDE1;strokeColor=#028090;labelBorderColor=none;" parent="97" vertex="1">
                    <mxGeometry y="120" width="449.9999999999998" height="30" as="geometry"/>
                </mxCell>
                <mxCell id="481" style="shape=partialRectangle;connectable=0;fillColor=none;top=0;left=0;bottom=0;right=0;editable=1;overflow=hidden;labelBackgroundColor=none;fontColor=#E4FDE1;strokeColor=#028090;labelBorderColor=none;" parent="480" vertex="1">
                    <mxGeometry width="30" height="30" as="geometry"/>
                </mxCell>
                <mxCell id="482" value="Img" style="shape=partialRectangle;connectable=0;fillColor=none;top=0;left=0;bottom=0;right=0;align=left;spacingLeft=6;overflow=hidden;labelBackgroundColor=none;fontColor=#E4FDE1;strokeColor=#028090;labelBorderColor=none;" parent="480" vertex="1">
                    <mxGeometry x="30" width="100" height="30" as="geometry"/>
                </mxCell>
                <mxCell id="483" value="VARCHAR ( 250)" style="shape=partialRectangle;connectable=0;fillColor=none;top=0;left=0;bottom=0;right=0;align=left;spacingLeft=6;overflow=hidden;labelBackgroundColor=none;fontColor=#E4FDE1;strokeColor=#028090;labelBorderColor=none;" parent="480" vertex="1">
                    <mxGeometry x="130" width="110" height="30" as="geometry"/>
                </mxCell>
                <mxCell id="484" style="shape=partialRectangle;connectable=0;fillColor=none;top=0;left=0;bottom=0;right=0;align=left;spacingLeft=6;overflow=hidden;labelBackgroundColor=none;fontColor=#E4FDE1;strokeColor=#028090;labelBorderColor=none;" parent="480" vertex="1">
                    <mxGeometry x="240" width="209.99999999999977" height="30" as="geometry"/>
                </mxCell>
                <mxCell id="139" value="" style="shape=partialRectangle;collapsible=0;dropTarget=0;pointerEvents=0;fillColor=none;top=0;left=0;bottom=0;right=0;points=[[0,0.5],[1,0.5]];portConstraint=eastwest;labelBackgroundColor=none;fontColor=#E4FDE1;strokeColor=#028090;labelBorderColor=none;" parent="97" vertex="1">
                    <mxGeometry y="150" width="449.9999999999998" height="30" as="geometry"/>
                </mxCell>
                <mxCell id="140" value="" style="shape=partialRectangle;connectable=0;fillColor=none;top=0;left=0;bottom=0;right=0;editable=1;overflow=hidden;labelBackgroundColor=none;fontColor=#E4FDE1;strokeColor=#028090;labelBorderColor=none;" parent="139" vertex="1">
                    <mxGeometry width="30" height="30" as="geometry"/>
                </mxCell>
                <mxCell id="141" value="Slug" style="shape=partialRectangle;connectable=0;fillColor=none;top=0;left=0;bottom=0;right=0;align=left;spacingLeft=6;overflow=hidden;labelBackgroundColor=none;fontColor=#E4FDE1;strokeColor=#028090;labelBorderColor=none;" parent="139" vertex="1">
                    <mxGeometry x="30" width="100" height="30" as="geometry"/>
                </mxCell>
                <mxCell id="142" value="VARCHAR (250)" style="shape=partialRectangle;connectable=0;fillColor=none;top=0;left=0;bottom=0;right=0;align=left;spacingLeft=6;overflow=hidden;labelBackgroundColor=none;fontColor=#E4FDE1;strokeColor=#028090;labelBorderColor=none;" parent="139" vertex="1">
                    <mxGeometry x="130" width="110" height="30" as="geometry"/>
                </mxCell>
                <mxCell id="143" value="NOT NULL" style="shape=partialRectangle;connectable=0;fillColor=none;top=0;left=0;bottom=0;right=0;align=left;spacingLeft=6;overflow=hidden;labelBackgroundColor=none;fontColor=#E4FDE1;strokeColor=#028090;labelBorderColor=none;" parent="139" vertex="1">
                    <mxGeometry x="240" width="209.99999999999977" height="30" as="geometry"/>
                </mxCell>
                <mxCell id="123" value="CREDIT" style="shape=table;startSize=30;container=1;collapsible=1;childLayout=tableLayout;fixedRows=1;rowLines=0;fontStyle=1;align=center;resizeLast=1;labelBackgroundColor=none;fontColor=#E4FDE1;fillColor=#F45B69;strokeColor=#028090;labelBorderColor=none;" parent="1" vertex="1">
                    <mxGeometry x="1845" y="965" width="449.9999999999998" height="130" as="geometry"/>
                </mxCell>
                <mxCell id="124" value="" style="shape=partialRectangle;collapsible=0;dropTarget=0;pointerEvents=0;fillColor=none;top=0;left=0;bottom=1;right=0;points=[[0,0.5],[1,0.5]];portConstraint=eastwest;labelBackgroundColor=none;fontColor=#E4FDE1;strokeColor=#028090;labelBorderColor=none;" parent="123" vertex="1">
                    <mxGeometry y="30" width="449.9999999999998" height="30" as="geometry"/>
                </mxCell>
                <mxCell id="125" value="PK" style="shape=partialRectangle;connectable=0;fillColor=none;top=0;left=0;bottom=0;right=0;fontStyle=1;overflow=hidden;labelBackgroundColor=none;fontColor=#E4FDE1;strokeColor=#028090;labelBorderColor=none;" parent="124" vertex="1">
                    <mxGeometry width="30" height="30" as="geometry"/>
                </mxCell>
                <mxCell id="126" value="UniqueID" style="shape=partialRectangle;connectable=0;fillColor=none;top=0;left=0;bottom=0;right=0;align=left;spacingLeft=6;fontStyle=5;overflow=hidden;labelBackgroundColor=none;fontColor=#E4FDE1;strokeColor=#028090;labelBorderColor=none;" parent="124" vertex="1">
                    <mxGeometry x="30" width="100" height="30" as="geometry"/>
                </mxCell>
                <mxCell id="127" value="BIGINT" style="shape=partialRectangle;connectable=0;fillColor=none;top=0;left=0;bottom=0;right=0;align=left;spacingLeft=6;fontStyle=5;overflow=hidden;labelBackgroundColor=none;fontColor=#E4FDE1;strokeColor=#028090;labelBorderColor=none;" parent="124" vertex="1">
                    <mxGeometry x="130" width="110" height="30" as="geometry"/>
                </mxCell>
                <mxCell id="128" value="UNIQUE KEY | AUTO_INCREMENT" style="shape=partialRectangle;connectable=0;fillColor=none;top=0;left=0;bottom=0;right=0;align=left;spacingLeft=6;fontStyle=5;overflow=hidden;labelBackgroundColor=none;fontColor=#E4FDE1;strokeColor=#028090;labelBorderColor=none;" parent="124" vertex="1">
                    <mxGeometry x="240" width="209.99999999999977" height="30" as="geometry"/>
                </mxCell>
                <mxCell id="129" value="" style="shape=partialRectangle;collapsible=0;dropTarget=0;pointerEvents=0;fillColor=none;top=0;left=0;bottom=0;right=0;points=[[0,0.5],[1,0.5]];portConstraint=eastwest;labelBackgroundColor=none;fontColor=#E4FDE1;strokeColor=#028090;labelBorderColor=none;" parent="123" vertex="1">
                    <mxGeometry y="60" width="449.9999999999998" height="30" as="geometry"/>
                </mxCell>
                <mxCell id="130" value="" style="shape=partialRectangle;connectable=0;fillColor=none;top=0;left=0;bottom=0;right=0;editable=1;overflow=hidden;labelBackgroundColor=none;fontColor=#E4FDE1;strokeColor=#028090;labelBorderColor=none;" parent="129" vertex="1">
                    <mxGeometry width="30" height="30" as="geometry"/>
                </mxCell>
                <mxCell id="131" value="Type" style="shape=partialRectangle;connectable=0;fillColor=none;top=0;left=0;bottom=0;right=0;align=left;spacingLeft=6;overflow=hidden;labelBackgroundColor=none;fontColor=#E4FDE1;strokeColor=#028090;labelBorderColor=none;" parent="129" vertex="1">
                    <mxGeometry x="30" width="100" height="30" as="geometry"/>
                </mxCell>
                <mxCell id="132" value="VARCHAR (250)" style="shape=partialRectangle;connectable=0;fillColor=none;top=0;left=0;bottom=0;right=0;align=left;spacingLeft=6;overflow=hidden;labelBackgroundColor=none;fontColor=#E4FDE1;strokeColor=#028090;labelBorderColor=none;" parent="129" vertex="1">
                    <mxGeometry x="130" width="110" height="30" as="geometry"/>
                </mxCell>
                <mxCell id="133" value="NOT NULL" style="shape=partialRectangle;connectable=0;fillColor=none;top=0;left=0;bottom=0;right=0;align=left;spacingLeft=6;overflow=hidden;labelBackgroundColor=none;fontColor=#E4FDE1;strokeColor=#028090;labelBorderColor=none;" parent="129" vertex="1">
                    <mxGeometry x="240" width="209.99999999999977" height="30" as="geometry"/>
                </mxCell>
                <mxCell id="149" value="" style="shape=partialRectangle;collapsible=0;dropTarget=0;pointerEvents=0;fillColor=none;top=0;left=0;bottom=0;right=0;points=[[0,0.5],[1,0.5]];portConstraint=eastwest;labelBackgroundColor=none;fontColor=#E4FDE1;strokeColor=#028090;labelBorderColor=none;" parent="123" vertex="1">
                    <mxGeometry y="90" width="449.9999999999998" height="30" as="geometry"/>
                </mxCell>
                <mxCell id="150" value="" style="shape=partialRectangle;connectable=0;fillColor=none;top=0;left=0;bottom=0;right=0;editable=1;overflow=hidden;labelBackgroundColor=none;fontColor=#E4FDE1;strokeColor=#028090;labelBorderColor=none;" parent="149" vertex="1">
                    <mxGeometry width="30" height="30" as="geometry"/>
                </mxCell>
                <mxCell id="151" value="Description" style="shape=partialRectangle;connectable=0;fillColor=none;top=0;left=0;bottom=0;right=0;align=left;spacingLeft=6;overflow=hidden;labelBackgroundColor=none;fontColor=#E4FDE1;strokeColor=#028090;labelBorderColor=none;" parent="149" vertex="1">
                    <mxGeometry x="30" width="100" height="30" as="geometry"/>
                </mxCell>
                <mxCell id="152" value="TEXT" style="shape=partialRectangle;connectable=0;fillColor=none;top=0;left=0;bottom=0;right=0;align=left;spacingLeft=6;overflow=hidden;labelBackgroundColor=none;fontColor=#E4FDE1;strokeColor=#028090;labelBorderColor=none;" parent="149" vertex="1">
                    <mxGeometry x="130" width="110" height="30" as="geometry"/>
                </mxCell>
                <mxCell id="153" style="shape=partialRectangle;connectable=0;fillColor=none;top=0;left=0;bottom=0;right=0;align=left;spacingLeft=6;overflow=hidden;labelBackgroundColor=none;fontColor=#E4FDE1;strokeColor=#028090;labelBorderColor=none;" parent="149" vertex="1">
                    <mxGeometry x="240" width="209.99999999999977" height="30" as="geometry"/>
                </mxCell>
                <mxCell id="154" value="CATEGORY" style="shape=table;startSize=30;container=1;collapsible=1;childLayout=tableLayout;fixedRows=1;rowLines=0;fontStyle=1;align=center;resizeLast=1;labelBackgroundColor=none;fontColor=#E4FDE1;fillColor=#F45B69;strokeColor=#028090;labelBorderColor=none;" parent="1" vertex="1">
                    <mxGeometry x="660" y="225" width="449.9999999999998" height="129.9999999999999" as="geometry"/>
                </mxCell>
                <mxCell id="155" value="" style="shape=partialRectangle;collapsible=0;dropTarget=0;pointerEvents=0;fillColor=none;top=0;left=0;bottom=1;right=0;points=[[0,0.5],[1,0.5]];portConstraint=eastwest;labelBackgroundColor=none;fontColor=#E4FDE1;strokeColor=#028090;labelBorderColor=none;" parent="154" vertex="1">
                    <mxGeometry y="30" width="449.9999999999998" height="30" as="geometry"/>
                </mxCell>
                <mxCell id="156" value="PK" style="shape=partialRectangle;connectable=0;fillColor=none;top=0;left=0;bottom=0;right=0;fontStyle=1;overflow=hidden;labelBackgroundColor=none;fontColor=#E4FDE1;strokeColor=#028090;labelBorderColor=none;" parent="155" vertex="1">
                    <mxGeometry width="30" height="30" as="geometry"/>
                </mxCell>
                <mxCell id="157" value="UniqueID" style="shape=partialRectangle;connectable=0;fillColor=none;top=0;left=0;bottom=0;right=0;align=left;spacingLeft=6;fontStyle=5;overflow=hidden;labelBackgroundColor=none;fontColor=#E4FDE1;strokeColor=#028090;labelBorderColor=none;" parent="155" vertex="1">
                    <mxGeometry x="30" width="100" height="30" as="geometry"/>
                </mxCell>
                <mxCell id="158" value="BIGINT" style="shape=partialRectangle;connectable=0;fillColor=none;top=0;left=0;bottom=0;right=0;align=left;spacingLeft=6;fontStyle=5;overflow=hidden;labelBackgroundColor=none;fontColor=#E4FDE1;strokeColor=#028090;labelBorderColor=none;" parent="155" vertex="1">
                    <mxGeometry x="130" width="110" height="30" as="geometry"/>
                </mxCell>
                <mxCell id="159" value="UNIQUE KEY | AUTO_INCREMENT" style="shape=partialRectangle;connectable=0;fillColor=none;top=0;left=0;bottom=0;right=0;align=left;spacingLeft=6;fontStyle=5;overflow=hidden;labelBackgroundColor=none;fontColor=#E4FDE1;strokeColor=#028090;labelBorderColor=none;" parent="155" vertex="1">
                    <mxGeometry x="240" width="209.99999999999977" height="30" as="geometry"/>
                </mxCell>
                <mxCell id="160" value="" style="shape=partialRectangle;collapsible=0;dropTarget=0;pointerEvents=0;fillColor=none;top=0;left=0;bottom=0;right=0;points=[[0,0.5],[1,0.5]];portConstraint=eastwest;labelBackgroundColor=none;fontColor=#E4FDE1;strokeColor=#028090;labelBorderColor=none;" parent="154" vertex="1">
                    <mxGeometry y="60" width="449.9999999999998" height="30" as="geometry"/>
                </mxCell>
                <mxCell id="161" value="" style="shape=partialRectangle;connectable=0;fillColor=none;top=0;left=0;bottom=0;right=0;editable=1;overflow=hidden;labelBackgroundColor=none;fontColor=#E4FDE1;strokeColor=#028090;labelBorderColor=none;" parent="160" vertex="1">
                    <mxGeometry width="30" height="30" as="geometry"/>
                </mxCell>
                <mxCell id="162" value="Type" style="shape=partialRectangle;connectable=0;fillColor=none;top=0;left=0;bottom=0;right=0;align=left;spacingLeft=6;overflow=hidden;labelBackgroundColor=none;fontColor=#E4FDE1;strokeColor=#028090;labelBorderColor=none;" parent="160" vertex="1">
                    <mxGeometry x="30" width="100" height="30" as="geometry"/>
                </mxCell>
                <mxCell id="163" value="VARCHAR (250)" style="shape=partialRectangle;connectable=0;fillColor=none;top=0;left=0;bottom=0;right=0;align=left;spacingLeft=6;overflow=hidden;labelBackgroundColor=none;fontColor=#E4FDE1;strokeColor=#028090;labelBorderColor=none;" parent="160" vertex="1">
                    <mxGeometry x="130" width="110" height="30" as="geometry"/>
                </mxCell>
                <mxCell id="164" value="NOT NULL" style="shape=partialRectangle;connectable=0;fillColor=none;top=0;left=0;bottom=0;right=0;align=left;spacingLeft=6;overflow=hidden;labelBackgroundColor=none;fontColor=#E4FDE1;strokeColor=#028090;labelBorderColor=none;" parent="160" vertex="1">
                    <mxGeometry x="240" width="209.99999999999977" height="30" as="geometry"/>
                </mxCell>
                <mxCell id="170" style="shape=partialRectangle;collapsible=0;dropTarget=0;pointerEvents=0;fillColor=none;top=0;left=0;bottom=0;right=0;points=[[0,0.5],[1,0.5]];portConstraint=eastwest;labelBackgroundColor=none;fontColor=#E4FDE1;strokeColor=#028090;labelBorderColor=none;" parent="154" vertex="1">
                    <mxGeometry y="90" width="449.9999999999998" height="30" as="geometry"/>
                </mxCell>
                <mxCell id="171" style="shape=partialRectangle;connectable=0;fillColor=none;top=0;left=0;bottom=0;right=0;editable=1;overflow=hidden;labelBackgroundColor=none;fontColor=#E4FDE1;strokeColor=#028090;labelBorderColor=none;" parent="170" vertex="1">
                    <mxGeometry width="30" height="30" as="geometry"/>
                </mxCell>
                <mxCell id="172" value="Slug" style="shape=partialRectangle;connectable=0;fillColor=none;top=0;left=0;bottom=0;right=0;align=left;spacingLeft=6;overflow=hidden;labelBackgroundColor=none;fontColor=#E4FDE1;strokeColor=#028090;labelBorderColor=none;" parent="170" vertex="1">
                    <mxGeometry x="30" width="100" height="30" as="geometry"/>
                </mxCell>
                <mxCell id="173" value="VARCHAR ( 250)" style="shape=partialRectangle;connectable=0;fillColor=none;top=0;left=0;bottom=0;right=0;align=left;spacingLeft=6;overflow=hidden;labelBackgroundColor=none;fontColor=#E4FDE1;strokeColor=#028090;labelBorderColor=none;" parent="170" vertex="1">
                    <mxGeometry x="130" width="110" height="30" as="geometry"/>
                </mxCell>
                <mxCell id="174" value="NOT NULL" style="shape=partialRectangle;connectable=0;fillColor=none;top=0;left=0;bottom=0;right=0;align=left;spacingLeft=6;overflow=hidden;labelBackgroundColor=none;fontColor=#E4FDE1;strokeColor=#028090;labelBorderColor=none;" parent="170" vertex="1">
                    <mxGeometry x="240" width="209.99999999999977" height="30" as="geometry"/>
                </mxCell>
                <mxCell id="175" value="" style="edgeStyle=entityRelationEdgeStyle;fontSize=12;html=1;endArrow=ERoneToMany;labelBackgroundColor=none;fontColor=#E4FDE1;strokeColor=#028090;labelBorderColor=none;" parent="1" target="4" edge="1">
                    <mxGeometry width="100" height="100" relative="1" as="geometry">
                        <mxPoint x="1110" y="270" as="sourcePoint"/>
                        <mxPoint x="1110" y="435" as="targetPoint"/>
                    </mxGeometry>
                </mxCell>
                <mxCell id="178" value="1" style="edgeLabel;html=1;align=center;verticalAlign=middle;resizable=0;points=[];labelBackgroundColor=none;fontColor=#E4FDE1;labelBorderColor=none;" parent="175" vertex="1" connectable="0">
                    <mxGeometry x="-0.5647" relative="1" as="geometry">
                        <mxPoint y="-11" as="offset"/>
                    </mxGeometry>
                </mxCell>
                <mxCell id="179" value="many" style="edgeLabel;html=1;align=center;verticalAlign=middle;resizable=0;points=[];labelBackgroundColor=none;fontColor=#E4FDE1;labelBorderColor=none;" parent="175" vertex="1" connectable="0">
                    <mxGeometry x="0.7059" y="-1" relative="1" as="geometry">
                        <mxPoint as="offset"/>
                    </mxGeometry>
                </mxCell>
                <mxCell id="177" value="" style="edgeStyle=entityRelationEdgeStyle;fontSize=12;html=1;endArrow=ERoneToMany;entryX=1;entryY=0.5;entryDx=0;entryDy=0;exitX=0.002;exitY=0.278;exitDx=0;exitDy=0;exitPerimeter=0;labelBackgroundColor=none;fontColor=#E4FDE1;strokeColor=#028090;labelBorderColor=none;" parent="1" source="60" target="4" edge="1">
                    <mxGeometry width="100" height="100" relative="1" as="geometry">
                        <mxPoint x="1260" y="515" as="sourcePoint"/>
                        <mxPoint x="1149.9999999999998" y="320" as="targetPoint"/>
                    </mxGeometry>
                </mxCell>
                <mxCell id="180" value="many" style="edgeLabel;html=1;align=center;verticalAlign=middle;resizable=0;points=[];labelBackgroundColor=none;fontColor=#E4FDE1;labelBorderColor=none;" parent="177" vertex="1" connectable="0">
                    <mxGeometry x="0.8507" relative="1" as="geometry">
                        <mxPoint x="54.09" y="-2" as="offset"/>
                    </mxGeometry>
                </mxCell>
                <mxCell id="181" value="1" style="edgeLabel;html=1;align=center;verticalAlign=middle;resizable=0;points=[];labelBackgroundColor=none;fontColor=#E4FDE1;labelBorderColor=none;" parent="177" vertex="1" connectable="0">
                    <mxGeometry x="-0.6261" y="1" relative="1" as="geometry">
                        <mxPoint y="-1" as="offset"/>
                    </mxGeometry>
                </mxCell>
                <mxCell id="188" value="" style="edgeStyle=entityRelationEdgeStyle;fontSize=12;html=1;endArrow=ERmany;startArrow=ERmany;exitX=1;exitY=0.5;exitDx=0;exitDy=0;entryX=0;entryY=0.5;entryDx=0;entryDy=0;labelBackgroundColor=none;fontColor=#E4FDE1;strokeColor=#028090;labelBorderColor=none;" parent="1" source="4" target="98" edge="1">
                    <mxGeometry width="100" height="100" relative="1" as="geometry">
                        <mxPoint x="1240" y="745" as="sourcePoint"/>
                        <mxPoint x="1340" y="645" as="targetPoint"/>
                    </mxGeometry>
                </mxCell>
                <mxCell id="189" value="many" style="edgeLabel;html=1;align=center;verticalAlign=middle;resizable=0;points=[];labelBackgroundColor=none;fontColor=#E4FDE1;labelBorderColor=none;" parent="188" vertex="1" connectable="0">
                    <mxGeometry x="-0.5983" relative="1" as="geometry">
                        <mxPoint x="9.81" as="offset"/>
                    </mxGeometry>
                </mxCell>
                <mxCell id="190" value="many" style="edgeLabel;html=1;align=center;verticalAlign=middle;resizable=0;points=[];labelBackgroundColor=none;fontColor=#E4FDE1;labelBorderColor=none;" parent="188" vertex="1" connectable="0">
                    <mxGeometry x="0.7264" y="-1" relative="1" as="geometry">
                        <mxPoint as="offset"/>
                    </mxGeometry>
                </mxCell>
                <mxCell id="191" value="" style="edgeStyle=entityRelationEdgeStyle;fontSize=12;html=1;endArrow=ERmany;startArrow=ERmany;exitX=1;exitY=0.5;exitDx=0;exitDy=0;entryX=0;entryY=0.5;entryDx=0;entryDy=0;labelBackgroundColor=none;fontColor=#E4FDE1;strokeColor=#028090;labelBorderColor=none;" parent="1" source="98" target="124" edge="1">
                    <mxGeometry width="100" height="100" relative="1" as="geometry">
                        <mxPoint x="1240" y="745" as="sourcePoint"/>
                        <mxPoint x="1340" y="645" as="targetPoint"/>
                    </mxGeometry>
                </mxCell>
                <mxCell id="192" value="many" style="edgeLabel;html=1;align=center;verticalAlign=middle;resizable=0;points=[];labelBackgroundColor=none;fontColor=#E4FDE1;labelBorderColor=none;" parent="191" vertex="1" connectable="0">
                    <mxGeometry x="0.7519" relative="1" as="geometry">
                        <mxPoint y="-1" as="offset"/>
                    </mxGeometry>
                </mxCell>
                <mxCell id="193" value="many" style="edgeLabel;html=1;align=center;verticalAlign=middle;resizable=0;points=[];labelBackgroundColor=none;fontColor=#E4FDE1;labelBorderColor=none;" parent="191" vertex="1" connectable="0">
                    <mxGeometry x="-0.5245" y="-4" relative="1" as="geometry">
                        <mxPoint as="offset"/>
                    </mxGeometry>
                </mxCell>
                <mxCell id="455" value="RATED" style="shape=table;startSize=30;container=1;collapsible=1;childLayout=tableLayout;fixedRows=1;rowLines=0;fontStyle=1;align=center;resizeLast=1;labelBackgroundColor=none;fontColor=#E4FDE1;fillColor=#F45B69;strokeColor=#028090;labelBorderColor=none;" parent="1" vertex="1">
                    <mxGeometry x="1329" y="265" width="449.9999999999998" height="130" as="geometry"/>
                </mxCell>
                <mxCell id="456" value="" style="shape=partialRectangle;collapsible=0;dropTarget=0;pointerEvents=0;fillColor=none;top=0;left=0;bottom=1;right=0;points=[[0,0.5],[1,0.5]];portConstraint=eastwest;labelBackgroundColor=none;fontColor=#E4FDE1;strokeColor=#028090;labelBorderColor=none;" parent="455" vertex="1">
                    <mxGeometry y="30" width="449.9999999999998" height="30" as="geometry"/>
                </mxCell>
                <mxCell id="457" value="PK" style="shape=partialRectangle;connectable=0;fillColor=none;top=0;left=0;bottom=0;right=0;fontStyle=1;overflow=hidden;labelBackgroundColor=none;fontColor=#E4FDE1;strokeColor=#028090;labelBorderColor=none;" parent="456" vertex="1">
                    <mxGeometry width="30" height="30" as="geometry"/>
                </mxCell>
                <mxCell id="458" value="UniqueID" style="shape=partialRectangle;connectable=0;fillColor=none;top=0;left=0;bottom=0;right=0;align=left;spacingLeft=6;fontStyle=5;overflow=hidden;labelBackgroundColor=none;fontColor=#E4FDE1;strokeColor=#028090;labelBorderColor=none;" parent="456" vertex="1">
                    <mxGeometry x="30" width="100" height="30" as="geometry"/>
                </mxCell>
                <mxCell id="459" value="BIGINT" style="shape=partialRectangle;connectable=0;fillColor=none;top=0;left=0;bottom=0;right=0;align=left;spacingLeft=6;fontStyle=5;overflow=hidden;labelBackgroundColor=none;fontColor=#E4FDE1;strokeColor=#028090;labelBorderColor=none;" parent="456" vertex="1">
                    <mxGeometry x="130" width="110" height="30" as="geometry"/>
                </mxCell>
                <mxCell id="460" value="UNIQUE KEY | AUTO_INCREMENT" style="shape=partialRectangle;connectable=0;fillColor=none;top=0;left=0;bottom=0;right=0;align=left;spacingLeft=6;fontStyle=5;overflow=hidden;labelBackgroundColor=none;fontColor=#E4FDE1;strokeColor=#028090;labelBorderColor=none;" parent="456" vertex="1">
                    <mxGeometry x="240" width="209.99999999999977" height="30" as="geometry"/>
                </mxCell>
                <mxCell id="461" value="" style="shape=partialRectangle;collapsible=0;dropTarget=0;pointerEvents=0;fillColor=none;top=0;left=0;bottom=0;right=0;points=[[0,0.5],[1,0.5]];portConstraint=eastwest;labelBackgroundColor=none;fontColor=#E4FDE1;strokeColor=#028090;labelBorderColor=none;" parent="455" vertex="1">
                    <mxGeometry y="60" width="449.9999999999998" height="30" as="geometry"/>
                </mxCell>
                <mxCell id="462" value="" style="shape=partialRectangle;connectable=0;fillColor=none;top=0;left=0;bottom=0;right=0;editable=1;overflow=hidden;labelBackgroundColor=none;fontColor=#E4FDE1;strokeColor=#028090;labelBorderColor=none;" parent="461" vertex="1">
                    <mxGeometry width="30" height="30" as="geometry"/>
                </mxCell>
                <mxCell id="463" value="Name" style="shape=partialRectangle;connectable=0;fillColor=none;top=0;left=0;bottom=0;right=0;align=left;spacingLeft=6;overflow=hidden;labelBackgroundColor=none;fontColor=#E4FDE1;strokeColor=#028090;labelBorderColor=none;" parent="461" vertex="1">
                    <mxGeometry x="30" width="100" height="30" as="geometry"/>
                </mxCell>
                <mxCell id="464" value="VARCHAR (250)" style="shape=partialRectangle;connectable=0;fillColor=none;top=0;left=0;bottom=0;right=0;align=left;spacingLeft=6;overflow=hidden;labelBackgroundColor=none;fontColor=#E4FDE1;strokeColor=#028090;labelBorderColor=none;" parent="461" vertex="1">
                    <mxGeometry x="130" width="110" height="30" as="geometry"/>
                </mxCell>
                <mxCell id="465" value="NOT NULL" style="shape=partialRectangle;connectable=0;fillColor=none;top=0;left=0;bottom=0;right=0;align=left;spacingLeft=6;overflow=hidden;labelBackgroundColor=none;fontColor=#E4FDE1;strokeColor=#028090;labelBorderColor=none;" parent="461" vertex="1">
                    <mxGeometry x="240" width="209.99999999999977" height="30" as="geometry"/>
                </mxCell>
                <mxCell id="466" value="" style="shape=partialRectangle;collapsible=0;dropTarget=0;pointerEvents=0;fillColor=none;top=0;left=0;bottom=0;right=0;points=[[0,0.5],[1,0.5]];portConstraint=eastwest;labelBackgroundColor=none;fontColor=#E4FDE1;strokeColor=#028090;labelBorderColor=none;" parent="455" vertex="1">
                    <mxGeometry y="90" width="449.9999999999998" height="30" as="geometry"/>
                </mxCell>
                <mxCell id="467" value="" style="shape=partialRectangle;connectable=0;fillColor=none;top=0;left=0;bottom=0;right=0;editable=1;overflow=hidden;labelBackgroundColor=none;fontColor=#E4FDE1;strokeColor=#028090;labelBorderColor=none;" parent="466" vertex="1">
                    <mxGeometry width="30" height="30" as="geometry"/>
                </mxCell>
                <mxCell id="468" value="Description" style="shape=partialRectangle;connectable=0;fillColor=none;top=0;left=0;bottom=0;right=0;align=left;spacingLeft=6;overflow=hidden;labelBackgroundColor=none;fontColor=#E4FDE1;strokeColor=#028090;labelBorderColor=none;" parent="466" vertex="1">
                    <mxGeometry x="30" width="100" height="30" as="geometry"/>
                </mxCell>
                <mxCell id="469" value="TEXT" style="shape=partialRectangle;connectable=0;fillColor=none;top=0;left=0;bottom=0;right=0;align=left;spacingLeft=6;overflow=hidden;labelBackgroundColor=none;fontColor=#E4FDE1;strokeColor=#028090;labelBorderColor=none;" parent="466" vertex="1">
                    <mxGeometry x="130" width="110" height="30" as="geometry"/>
                </mxCell>
                <mxCell id="470" style="shape=partialRectangle;connectable=0;fillColor=none;top=0;left=0;bottom=0;right=0;align=left;spacingLeft=6;overflow=hidden;labelBackgroundColor=none;fontColor=#E4FDE1;strokeColor=#028090;labelBorderColor=none;" parent="466" vertex="1">
                    <mxGeometry x="240" width="209.99999999999977" height="30" as="geometry"/>
                </mxCell>
                <mxCell id="476" value="" style="edgeStyle=entityRelationEdgeStyle;fontSize=12;html=1;endArrow=ERoneToMany;entryX=1;entryY=0.5;entryDx=0;entryDy=0;exitX=0;exitY=0.5;exitDx=0;exitDy=0;labelBackgroundColor=none;fontColor=#E4FDE1;strokeColor=#028090;labelBorderColor=none;" parent="1" source="456" target="4" edge="1">
                    <mxGeometry width="100" height="100" relative="1" as="geometry">
                        <mxPoint x="1344.9" y="583.3399999999999" as="sourcePoint"/>
                        <mxPoint x="1135.0000000000002" y="585" as="targetPoint"/>
                    </mxGeometry>
                </mxCell>
                <mxCell id="477" value="many" style="edgeLabel;html=1;align=center;verticalAlign=middle;resizable=0;points=[];labelBackgroundColor=none;fontColor=#E4FDE1;labelBorderColor=none;" parent="476" vertex="1" connectable="0">
                    <mxGeometry x="0.8507" relative="1" as="geometry">
                        <mxPoint x="38.190000000000005" y="-60" as="offset"/>
                    </mxGeometry>
                </mxCell>
                <mxCell id="478" value="1" style="edgeLabel;html=1;align=center;verticalAlign=middle;resizable=0;points=[];labelBackgroundColor=none;fontColor=#E4FDE1;labelBorderColor=none;" parent="476" vertex="1" connectable="0">
                    <mxGeometry x="-0.6261" y="1" relative="1" as="geometry">
                        <mxPoint y="-1" as="offset"/>
                    </mxGeometry>
                </mxCell>
                <mxCell id="485" value="" style="whiteSpace=wrap;html=1;aspect=fixed;fillColor=none;" vertex="1" parent="1">
                    <mxGeometry x="630" width="1695" height="1695" as="geometry"/>
                </mxCell>
            </root>
        </mxGraphModel>
    </diagram>
</mxfile>